#!OML:ASF F:\VICON\USERDATA\INSTALL\rory3\rory3.ASF
:FULLY-SPECIFIED
:DEGREES
55
root -0.09531218278889955 18.249734779115983 19.823938472601895 3.7016539332747405 3.054313967955729 -4.844630435176051
lfemur -38.383212745547404 -1.9803981369089303 -17.73493589281672
ltibia 52.4802792971889
lfoot -3.11725859119548 -9.611575621127908
ltoes -16.630094411167477
rfemur 4.905314398846954 1.5882465980303073 32.96656875141147
rtibia 34.249707174668245
rfoot 17.451116233427477 -3.039954961904873
rtoes 4.670128862890441
lowerback 13.55104983976892 1.9174719870158266 5.248077758417423
upperback -1.9265267242647535 3.5689004161327063 1.5829824470757559
thorax -9.248252637270348 1.4809647273653763 -3.1662117310660896
lowerneck -19.513672956452133 -5.090269689759651 -1.9845974876635188
upperneck 14.568896342791533 -6.8872699326650935 2.4164966357414945
head 7.814610214789425 -3.1439307158819982 0.27433088840957665
lclavicle -4.590197163403334e-15 -2.919375481331017e-16
lhumerus -68.69850003726997 -9.862161013106727 97.26113077862261
lradius 104.34714329511705
lwrist 34.186298094352935
lhand -25.65940398634659 3.2258228972681184
lfingers 7.12502
lthumb 0.8746587786978575 33.211030265463926
rclavicle -4.590197163403334e-15 -2.919375481331017e-16
rhumerus -41.95629087970157 11.834633696674338 -93.81369497212572
rradius 113.56120213020678
rwrist -11.291701440179656
rhand -15.348087327599764 38.7592053236162
rfingers 7.12502
rthumb 10.828445318783663 10.425824774552751
56
root -0.06932873050602298 18.36730105254468 21.51486524784866 3.9073518817380837 3.294266782950315 -4.817598376628657
lfemur -36.15213345548095 -1.8814193202304084 -17.90114629880557
ltibia 45.93830851088406
lfoot -1.1833840993093643 -10.431274539275107
ltoes -15.632917334223944
rfemur 6.972113779084513 3.048999535980146 33.50830218208677
rtibia 36.17503463497211
rfoot 20.44109449673087 -2.9270642109682856
rtoes 9.202912598560836
lowerback 13.133011285301864 2.1897846356417627 5.556131699179191
upperback -2.082919336652126 3.9325293879641707 1.4860799568648448
thorax -9.052511095433509 1.639247893209867 -3.3494262500616263
lowerneck -19.374762176569483 -5.133035827119346 -2.006748540659673
upperneck 15.062437759095282 -6.9729519801483875 2.5597241167579603
head 7.965138828651757 -3.170767663269956 0.31212469885580446
lclavicle -3.5191364162240397e-15 4.852939364838682e-16
lhumerus -69.38932260129035 -8.49635190249653 96.62094297256857
lradius 105.94377902349301
lwrist 34.032947007958555
lhand -25.57948810360791 2.866916786204572
lfingers 7.12502
lthumb 0.9518168355167234 32.85193368001352
rclavicle -3.5191364162240397e-15 4.852939364838682e-16
rhumerus -41.87793321591343 12.42767968140826 -93.89260756041021
rradius 113.51657310543382
rwrist -11.270636415761413
rhand -15.293695898615955 38.752027807861644
rfingers 7.12502
rthumb 10.881060644378914 10.52528973487126
57
root -0.07049044702023471 18.401816054935015 21.667120979794575 3.887919990086526 3.22534980441534 -5.065699867885019
lfemur -35.28469479798694 -1.8208009326738686 -18.489837374345925
ltibia 38.84285944490667
lfoot -0.22732382947313895 -11.032405353552823
ltoes -15.87552644835768
rfemur 6.717973924712968 4.05684808029384 33.75433168498347
rtibia 37.95482458945983
rfoot 20.55516160443076 -3.6844814182815213
rtoes 11.07365029506608
lowerback 12.84759969177279 2.3144128218789537 5.6052685348301985
upperback -2.2124715235151267 4.088076230760345 1.3767069266951832
thorax -8.98837670063141 1.710548372941604 -3.65699446478733
lowerneck -19.555826151395614 -5.226088842139825 -2.076682194904555
upperneck 15.290873452414186 -7.119448115413172 2.6170924423928463
head 8.069374399809947 -3.2259158964270345 0.3260683063870199
lclavicle -4.2917248729380416e-15 -7.502632193236235e-17
lhumerus -70.61330800128312 -7.771519645051681 95.97480392394846
lradius 107.17488060211811
lwrist 33.53823311929223
lhand -25.30036024608546 2.1209263322374845
lfingers 7.12502
lthumb 1.2213711576261739 32.09837263396583
rclavicle -4.2917248729380416e-15 -7.502632193236235e-17
rhumerus -42.43296715137386 12.764185769401532 -94.32178441903321
rradius 113.04624773663967
rwrist -11.312318132548697
rhand -15.653584919363219 38.755037729675216
rfingers 7.12502
rthumb 10.534215033907127 10.447760830952086
58
root -0.06876870227793039 18.41057063509486 22.753555016312184 3.752898550675951 3.240488703307427 -5.218170297696414
lfemur -33.68943658363935 -1.4360729713967821 -18.851751389937885
ltibia 34.273377889782466
lfoot 1.0065991717688274 -11.07099369892445
ltoes -16.31507024300355
rfemur 6.626025038658021 4.795223264218302 34.09332188697888
rtibia 42.26862665325882
rfoot 19.963604244690046 -4.657758656500892
rtoes 12.008986240994252
lowerback 12.867534393133095 2.4453092382244543 5.705392682466118
upperback -2.1794434418008217 4.275108803229683 1.356095562340559
thorax -8.95512070794411 1.795159474940414 -3.7568445928841503
lowerneck -19.702142353559807 -5.229343376044462 -2.135161439373247
upperneck 15.344313021403948 -7.124135109245113 2.713942415216007
head 8.122211326366589 -3.2192194933209133 0.36832140547303965
lclavicle -4.107096242192467e-15 5.86083546259814e-17
lhumerus -70.9432354457363 -6.954212363843316 95.64498531570793
lradius 108.5085663598379
lwrist 33.005338376557354
lhand -24.91538498115377 1.466331520862951
lfingers 7.12502
lthumb 1.5931607643796935 31.43520895418484
rclavicle -4.107096242192467e-15 5.86083546259814e-17
rhumerus -42.49717848786421 13.241435947594894 -94.66317502844178
rradius 112.57179280263891
rwrist -11.201535894930277
rhand -16.093417490433406 38.77279260432329
rfingers 7.12502
rthumb 10.110284382785029 10.287783176509436
59
root -0.08194737206054237 18.36590468058371 23.41114587034523 3.3887931188600953 3.320131327883084 -5.274003841800857
lfemur -32.39754271393598 -1.1512226831677494 -19.43124079493805
ltibia 30.766700260945978
lfoot 1.5629659833863148 -11.152637615352027
ltoes -16.946796942365072
rfemur 5.800494992871133 4.909855681725913 33.993199561454745
rtibia 47.14392516129402
rfoot 18.94674483520039 -5.919785627510071
rtoes 11.719263078713924
lowerback 13.027354728531632 2.4846419834026814 5.5645027344379185
upperback -2.0575034850197147 4.3149824741040295 1.310637458302391
thorax -8.965192761989568 1.8210165415017023 -3.7693612942496126
lowerneck -19.787984077771124 -5.22390515320194 -2.222291166122976
upperneck 15.211776433438589 -7.109999848638044 2.813519693385704
head 8.108584584541234 -3.2059644537026237 0.42563034154255724
lclavicle -4.332424761721058e-15 -1.0525130584187595e-16
lhumerus -71.05237622904971 -6.48452048943263 95.50686075311295
lradius 109.45911330548586
lwrist 32.3526930045841
lhand -24.717546900641743 1.039578607513997
lfingers 7.12502
lthumb 1.784245911725348 31.005492744615722
rclavicle -4.332424761721058e-15 -1.0525130584187595e-16
rhumerus -42.73091385272553 13.427706085661416 -95.05696779349451
rradius 111.78468032884217
rwrist -11.116921242641574
rhand -16.47560881190922 38.72083051044373
rfingers 7.12502
rthumb 9.741719246633647 10.060281895937893
